<svg width="512" height="512" viewBox="0 0 512 512" fill="none" xmlns="http://www.w3.org/2000/svg">
  <rect width="512" height="512" rx="132" fill="#F8F7F3"/>
  <ellipse cx="248" cy="146" rx="34" ry="62" fill="#8A5A3A"/>
  <ellipse cx="344" cy="146" rx="34" ry="62" fill="#8A5A3A"/>
  <ellipse cx="248" cy="112" rx="26" ry="28" fill="#574135"/>
  <ellipse cx="344" cy="112" rx="26" ry="28" fill="#574135"/>
  <path d="M196 164C196 95.5167 251.517 40 320 40C388.483 40 444 95.5167 444 164V240H196V164Z" fill="#F7C16C"/>
  <path d="M320 64C364.183 64 400 99.8172 400 144V240H240V144C240 99.8172 275.817 64 320 64Z" fill="#F8C87D"/>
  <path d="M297 120C306.389 111.624 320.906 108.344 332.879 111.548C359.011 118.543 378 143.155 378 172V176H262V162.119C262 151.284 267.022 141.06 275.592 134.433L297 120Z" fill="#8A4A2C" fill-opacity="0.92"/>
  <ellipse cx="204" cy="214" rx="54" ry="70" fill="#F5C47C"/>
  <ellipse cx="436" cy="214" rx="54" ry="70" fill="#F5C47C"/>
  <path d="M154 214C154 178.654 176.654 150 204 150C231.346 150 254 178.654 254 214C254 218.443 253.656 222.78 252.996 226.98C247.042 205.525 227.392 190 204 190C180.608 190 160.958 205.525 155.004 226.98C154.344 222.78 154 218.443 154 214Z" fill="#FFD9B7"/>
  <path d="M386 214C386 178.654 408.654 150 436 150C463.346 150 486 178.654 486 214C486 218.443 485.656 222.78 484.996 226.98C479.042 205.525 459.392 190 436 190C412.608 190 392.958 205.525 387.004 226.98C386.344 222.78 386 218.443 386 214Z" fill="#FFD9B7"/>
  <path d="M170 234C170 156.68 232.68 94 310 94H330C407.32 94 470 156.68 470 234V258C470 361.83 385.83 446 282 446H274C170.17 446 86 361.83 86 258V250C86 241.163 93.1634 234 102 234H170Z" fill="#F7C16C"/>
  <path d="M208 132L244 126L232 162L198 156L208 132Z" fill="#D97531"/>
  <path d="M274 108L312 102L302 138L264 136L274 108Z" fill="#D97531"/>
  <path d="M338 110L378 122L364 154L326 144L338 110Z" fill="#D97531"/>
  <path d="M394 154L432 176L410 206L378 186L394 154Z" fill="#D97531"/>
  <path d="M170 164L212 178L198 214L156 200L170 164Z" fill="#D97531"/>
  <path d="M234 184L284 196L268 236L220 224L234 184Z" fill="#D97531"/>
  <path d="M314 188L364 200L352 240L304 230L314 188Z" fill="#D97531"/>
  <path d="M388 208L428 226L414 260L376 248L388 208Z" fill="#D97531"/>
  <path d="M300 82L326 52L350 84L334 124H310L300 82Z" fill="#6F3D25"/>
  <rect x="112" y="216" width="156" height="104" rx="36" fill="#FF5A59"/>
  <rect x="244" y="216" width="156" height="104" rx="36" fill="#FF5A59"/>
  <rect x="126" y="230" width="128" height="76" rx="28" fill="#121212"/>
  <rect x="258" y="230" width="128" height="76" rx="28" fill="#121212"/>
  <path d="M224 258C224 241.431 237.431 228 254 228H258V252C258 268.569 244.569 282 228 282H224V258Z" fill="#101010"/>
  <path d="M96 298H164V312C164 335.196 145.196 354 122 354H96V298Z" fill="#0EB5B0"/>
  <path d="M348 334H416V354H390C366.804 354 348 335.196 348 312V334Z" fill="#0EB5B0"/>
  <path d="M116 332C116 314.327 130.327 300 148 300H164V312C164 329.673 149.673 344 132 344H116V332Z" fill="#F2C84B"/>
  <path d="M348 312V300H364C381.673 300 396 314.327 396 332V344H380C362.327 344 348 329.673 348 312Z" fill="#F2C84B"/>
  <path d="M236 252H276V268C276 279.046 267.046 288 256 288C244.954 288 236 279.046 236 268V252Z" fill="#FF6B7B"/>
  <ellipse cx="242" cy="262" rx="18" ry="14" fill="#F95D74"/>
  <path d="M228 354C228 324.177 252.177 300 282 300H298C327.823 300 352 324.177 352 354V362C352 391.823 327.823 416 298 416H282C252.177 416 228 391.823 228 362V354Z" fill="#F0B970"/>
  <ellipse cx="290" cy="362" rx="18" ry="13" fill="#BC6B2E"/>
  <ellipse cx="280" cy="362" rx="3.5" ry="4.5" fill="#63341D"/>
  <ellipse cx="300" cy="362" rx="3.5" ry="4.5" fill="#63341D"/>
  <path d="M262 390C271.458 399.333 284.125 404 297 404C309.875 404 322.542 399.333 332 390" stroke="#B15D2C" stroke-width="9" stroke-linecap="round"/>
  <path d="M166 398C166 338.905 213.905 291 273 291H311C370.095 291 418 338.905 418 398V440H166V398Z" fill="#0FA4A7"/>
  <path d="M176 440V398C176 344.428 219.428 301 273 301H311C364.572 301 408 344.428 408 398V440H176Z" fill="#1098A0"/>
  <path d="M242 396L230 486" stroke="#FF6787" stroke-width="14" stroke-linecap="round"/>
  <path d="M338 396L350 486" stroke="#FF6787" stroke-width="14" stroke-linecap="round"/>
  <circle cx="372" cy="416" r="22" fill="#1CD9C0"/>
  <path d="M360 416C366 426 382 428 388 416C393 406 404 404 410 410C408 425 395 438 378 438C361 438 348 425 346 410C352 404 363 406 368 416Z" fill="#F8E25D"/>
  <path d="M346 410C352 404 363 406 368 416C366.162 412.942 365.6 409.475 366.399 406.47C358.942 405.219 351.989 406.919 346 410Z" fill="#FF6A72"/>
  <path d="M368 416C373.7 425.501 388.392 427.848 396.091 420.435C391.315 424.401 384.855 426.759 378 426.759C371.145 426.759 364.685 424.401 359.909 420.435C363.141 421.674 366.429 419.99 368 416Z" fill="#7D68FF"/>
  <path d="M258 202C268 192 280 187 294 187C307.5 187 319 191.5 329 201" stroke="#C96F31" stroke-width="10" stroke-linecap="round"/>
</svg>